<svg id="Capa_1" enable-background="new 0 0 512.002 512.002" height="512" viewBox="0 0 512.002 512.002" width="512" xmlns="http://www.w3.org/2000/svg"><g><path d="m376.131 361.799-49.96.301-.086-15.182c-.047-8.251-6.749-14.915-15-14.915h-76.487l-28.265-211.983c-1.16-8.709-9.538-14.566-18.121-12.661l-6.031 1.34-12.757-95.679c-1.138-8.536-9.229-14.38-17.711-12.746l-119.071 22.979c-7.816 1.508-13.094 8.861-12.021 16.75l13.82 101.586c-6.786 2.209-11.153 8.971-10.221 16.183l44.108 341.154c.967 7.479 7.335 13.077 14.876 13.077h228.73c8.315 0 15.047-6.771 15-15.085l-.087-15.399 50.068-.299c13.76-.107 24.888-11.39 24.805-25.151l-.421-69.424c-.088-14.131-11.783-25.043-25.168-24.846zm-234.343-329.056 10.999 82.485-88.966 19.762-11.56-84.97zm-45.397 449.259-25.308-195.743 67.489-15.522c8.073-1.857 13.113-9.907 11.256-17.98s-9.909-13.113-17.98-11.256l-64.629 14.865-3.744-28.96 67.398-15.501c8.073-1.857 13.113-9.907 11.256-17.98-1.856-8.074-9.911-13.114-17.98-11.256l-64.538 14.844-3.878-29.992 123.026-27.329 27.84 208.794c.993 7.452 7.351 13.018 14.868 13.018h74.705l.681 120h-200.462zm230.287-30.482-.337-59.421 44.989-.27.36 59.422z"/><path d="m451.259 361.233 30-10c7.859-2.62 12.106-11.115 9.487-18.974-2.62-7.859-11.115-12.108-18.974-9.487l-30 10c-7.859 2.62-12.106 11.115-9.487 18.974 2.625 7.874 11.13 12.102 18.974 9.487z"/><path d="m476.516 392.002h-30c-8.284 0-15 6.716-15 15s6.716 15 15 15h30c8.284 0 15-6.716 15-15s-6.716-15-15-15z"/><path d="m481.158 462.772-30-10c-7.858-2.618-16.354 1.628-18.974 9.487-2.619 7.859 1.628 16.354 9.487 18.974 30.52 9.912 30.493 10.773 34.745 10.773 6.28 0 12.133-3.975 14.229-10.26 2.62-7.859-1.627-16.354-9.487-18.974z"/></g></svg>