<svg id="Capa_1" enable-background="new 0 0 512 512" height="512" viewBox="0 0 512 512" width="512" xmlns="http://www.w3.org/2000/svg"><g><g><g><g><path d="m355.455 49.894c0 19.041 15.464 44.881 34.539 44.881h31.31v105.565h-31.31c-19.075 0-34.539 25.841-34.539 44.881 0 13.518-10.978 24.477-24.521 24.477h-296.413c-13.543.001-24.521-10.958-24.521-24.476v-195.328c0-13.518 10.978-24.476 24.521-24.476h296.413c13.542 0 24.521 10.958 24.521 24.476z" fill="#faf7f5"/></g><g><path d="m81.566 60.546h196.692v221.613h-196.692z" fill="#fffbdf" transform="matrix(0 -1 1 0 8.56 351.265)"/></g><g><path d="m201.77 127.406v21.269h21.492c6.07 0 10.99 4.872 10.99 10.883v21.508c0 6.01-4.92 10.883-10.99 10.883h-21.492v21.269c0 6.01-4.92 10.883-10.99 10.883h-21.737c-6.07 0-10.99-4.872-10.99-10.883v-21.268h-21.492c-6.07 0-10.99-4.873-10.99-10.883v-21.508c0-6.01 4.92-10.883 10.99-10.883h21.492v-21.269c0-6.01 4.92-10.883 10.99-10.883h21.737c6.07-.001 10.99 4.871 10.99 10.882z" fill="#ff7d97"/></g></g><g><path d="m468.103 310.703c0 11.452-4.387 22.908-13.166 31.645-8.778 8.738-20.281 13.108-31.783 13.108-11.49 0-22.978-4.357-31.749-13.07l-.037-.038c-17.121-17.047-17.543-44.421-1.266-61.977.974-1.051 33.052-34.29 33.052-34.29s32.077 33.24 33.055 34.295c7.931 8.554 11.894 19.442 11.894 30.327z" fill="#ff9eb1"/></g><g><path d="m160.45 392.543h-150.45v41.608h303.566s7.263 52.432 67.76 52.432h51.887c49.035 0 68.786-29.679 68.786-78.625v-15.414h-251.137" fill="#b5b3ee"/></g></g><g><g><path d="m34.521 279.699h296.412c19.035 0 34.522-15.466 34.522-34.476 0-14.587 12.365-34.881 24.538-34.881h31.311c5.522 0 10-4.477 10-10v-105.566c0-5.523-4.478-10-10-10h-31.311c-12.173 0-24.538-20.294-24.538-34.881 0-19.01-15.486-34.477-34.522-34.477h-296.412c-19.036 0-34.521 15.466-34.521 34.477v195.328c0 19.009 15.486 34.476 34.521 34.476zm44.584-20v-176.692h201.613v176.692zm-59.105-209.804c0-7.982 6.514-14.477 14.521-14.477h296.413c8.007 0 14.522 6.494 14.522 14.477 0 24.858 19.867 54.881 44.538 54.881h21.311v85.565h-21.311c-24.671 0-44.538 30.023-44.538 54.881 0 7.982-6.515 14.476-14.522 14.476h-30.215v-186.691c0-5.523-4.478-10-10-10h-221.614c-5.522 0-10 4.477-10 10v186.692h-24.584c-8.007 0-14.521-6.494-14.521-14.476z"/><path d="m223.263 138.675h-11.493v-11.269c0-11.515-9.416-20.883-20.99-20.883h-21.736c-11.574 0-20.99 9.368-20.99 20.883v11.269h-11.492c-11.574 0-20.99 9.368-20.99 20.883v21.508c0 11.515 9.416 20.883 20.99 20.883h11.492v11.269c0 11.515 9.416 20.883 20.99 20.883h21.736c11.574 0 20.99-9.368 20.99-20.883v-11.268h11.492c11.574 0 20.99-9.368 20.99-20.883v-21.508c.001-11.516-9.415-20.884-20.989-20.884zm.99 42.391c0 .487-.444.883-.99.883h-21.493c-5.522 0-10 4.477-10 10v21.269c0 .487-.444.883-.99.883h-21.736c-.546 0-.99-.396-.99-.883v-21.268c0-5.523-4.477-10-10-10h-21.492c-.546 0-.99-.396-.99-.883v-21.508c0-.487.444-.883.99-.883h21.492c5.523 0 10-4.477 10-10v-21.269c0-.487.444-.883.99-.883h21.736c.546 0 .99.396.99.883v21.269c0 5.523 4.478 10 10 10h21.492c.546 0 .99.396.99.883v21.507z"/><path d="m423.154 236.08c-2.714 0-5.311 1.103-7.195 3.056-5.368 5.563-32.197 33.365-33.19 34.436-20.093 21.672-19.415 54.995 1.474 75.793.038.039.076.078.114.116 10.371 10.302 24.149 15.976 38.798 15.976 14.666 0 28.459-5.69 38.837-16.02 10.391-10.34 16.112-24.096 16.112-38.733 0-13.814-5.171-26.999-14.56-37.126-.995-1.074-27.824-28.879-33.192-34.441-1.886-1.954-4.484-3.057-7.198-3.057zm34.949 74.623c0 9.277-3.63 17.998-10.221 24.557-6.605 6.575-15.387 10.196-24.729 10.196-9.307 0-18.058-3.591-24.65-10.113-.026-.027-.054-.054-.081-.082-13.288-13.232-13.723-34.356-1.007-48.072.815-.867 14.014-14.556 25.738-26.708 11.722 12.15 24.916 25.835 25.722 26.692 5.951 6.419 9.228 14.775 9.228 23.53z"/><path d="m502 382.543h-251.138c-5.523 0-10 4.477-10 10s4.477 10 10 10h241.138v5.414c0 22.907-4.625 40.18-13.747 51.338-9.509 11.632-24.241 17.287-45.039 17.287h-51.887c-50.72 0-57.595-42.065-57.855-43.804-.685-4.945-4.913-8.628-9.905-8.628h-293.567v-21.608h140.45c5.523 0 10-4.477 10-10s-4.477-10-10-10h-150.45c-5.523 0-10 4.477-10 10v41.608c0 5.523 4.477 10 10 10h295.738c1.823 5.855 5.116 13.966 10.89 22.035 9.921 13.867 29.199 30.397 64.699 30.397h51.887c35.941 0 78.786-15.375 78.786-88.625v-15.414c0-5.523-4.478-10-10-10z"/><path d="m214.149 386.99c-2.343-3.584-6.959-5.233-11.055-4.055-3.954 1.137-6.894 4.676-7.221 8.79-.331 4.164 2.027 8.198 5.839 9.925 3.756 1.702 8.282.87 11.199-2.04 3.334-3.326 3.848-8.71 1.238-12.62z"/></g></g></g></svg>